<svg xmlns="http://www.w3.org/2000/svg" width="1200" height="1200" viewBox="0 0 1200 1200" version="1.1"><path d="M 224.571 243.571 C 223.155 244.988, 223 262.148, 223 417.536 L 223 589.930 225.080 591.043 C 229.679 593.504, 258.944 588.998, 277.444 582.979 C 337.736 563.364, 381.625 513.903, 395 450.500 C 399.535 429, 398.676 397.458, 392.939 374.820 C 374.658 302.681, 313.343 250.346, 238.576 243.064 C 225.115 241.753, 226.438 241.705, 224.571 243.571 M 572.996 243.064 C 496.665 251.180, 434.013 308.313, 418.962 383.530 C 416.187 397.399, 415.217 423.690, 416.963 437.721 C 419.579 458.744, 427.275 482.750, 437.090 500.500 C 461.744 545.085, 503.367 576.261, 553.079 587.377 C 567.407 590.581, 586.249 592.472, 589.026 590.986 C 590.980 589.941, 591 588.143, 591 417.620 C 591 251.959, 590.929 245.246, 589.171 243.655 C 587.211 241.881, 584.913 241.797, 572.996 243.064 M 610.531 243.354 C 608.863 244.573, 608.745 245.685, 609.333 254.604 C 610.550 273.066, 615.780 291.595, 625.109 310.500 C 660.075 381.351, 746.667 421.110, 830.726 404.908 C 900.542 391.452, 955.462 343.077, 971.967 280.500 C 974.246 271.859, 976.952 254.764, 976.982 248.821 C 977.019 241.362, 994.202 242, 793.120 242 C 642.733 242, 612.071 242.227, 610.531 243.354 M 778 425.576 C 761.857 427.419, 754.769 428.639, 743.439 431.522 C 673.256 449.380, 622.090 501.632, 610.944 566.829 C 608.546 580.855, 608.429 588.286, 610.571 590.429 C 611.988 591.846, 629.859 592, 792.349 592 C 995.282 592, 977.005 592.773, 976.994 584.193 C 976.991 581.612, 976.334 575.225, 975.534 570 C 968.422 523.553, 942.509 484.434, 900.500 456.726 C 878.251 442.051, 852.694 432.290, 823.986 427.503 C 814.882 425.985, 785.281 424.744, 778 425.576 M 225.223 609.557 C 222.502 611.462, 222.332 616.062, 224.466 630 C 233.621 689.792, 275.885 739.477, 337 762.295 C 360.254 770.977, 379.831 774.348, 407 774.348 C 442.197 774.348, 468.424 768.081, 499 752.365 C 516.514 743.363, 528.426 734.579, 543.557 719.506 C 563.069 700.070, 575.064 680.917, 583.485 655.750 C 587.268 644.444, 591 624.982, 591 616.556 C 591 607.058, 611.226 608, 407.394 608 C 246.145 608, 227.214 608.162, 225.223 609.557 M 610.678 609.803 C 609.121 611.524, 609 624.032, 609 783.257 C 609 941.859, 609.126 954.983, 610.661 956.518 C 612.055 957.913, 613.623 958.075, 620.411 957.529 C 681.200 952.638, 733.265 919.613, 762.347 867.500 C 793.866 811.017, 790.909 739.877, 754.810 686.238 C 724.408 641.063, 675.648 612.978, 619.928 608.551 C 613.355 608.028, 612.135 608.193, 610.678 609.803 M 958.996 609.064 C 890.946 616.300, 832.532 663.122, 811.055 727.647 C 804.897 746.149, 802.972 757.024, 802.320 777 C 801.709 795.707, 803.053 809.365, 807.061 825.180 C 825.491 897.907, 886.665 949.816, 962.346 956.946 C 969.713 957.640, 973.803 957.641, 975.096 956.949 C 976.957 955.953, 977 951.996, 977 783 C 977 613.053, 976.967 610.053, 975.066 609.035 C 972.917 607.885, 970.034 607.890, 958.996 609.064 M 391.400 792.046 C 320.324 797.443, 257.050 841.883, 233.455 902.977 C 227.799 917.623, 223.077 939.433, 223.018 951.179 C 222.981 958.638, 205.734 958, 407.449 958 C 569.079 958, 588.893 957.834, 590.027 956.468 C 590.967 955.335, 591.131 952.405, 590.657 945.218 C 589.449 926.934, 584.187 908.338, 574.891 889.500 C 543.378 825.646, 469.018 786.153, 391.400 792.046" stroke="none" fill="#141413" fill-rule="evenodd"/><path d="M 0 600.001 L 0 1200.002 600.250 1199.751 L 1200.500 1199.500 1200.751 599.750 L 1201.002 0 600.501 0 L 0 0 0 600.001 M 0.497 600.500 C 0.497 930.500, 0.611 1065.649, 0.750 900.832 C 0.889 736.015, 0.889 466.015, 0.750 300.832 C 0.611 135.649, 0.497 270.500, 0.497 600.500 M 224.571 243.571 C 223.155 244.988, 223 262.148, 223 417.536 L 223 589.930 225.080 591.043 C 229.679 593.504, 258.944 588.998, 277.444 582.979 C 337.736 563.364, 381.625 513.903, 395 450.500 C 399.535 429, 398.676 397.458, 392.939 374.820 C 374.658 302.681, 313.343 250.346, 238.576 243.064 C 225.115 241.753, 226.438 241.705, 224.571 243.571 M 572.996 243.064 C 496.665 251.180, 434.013 308.313, 418.962 383.530 C 416.187 397.399, 415.217 423.690, 416.963 437.721 C 419.579 458.744, 427.275 482.750, 437.090 500.500 C 461.744 545.085, 503.367 576.261, 553.079 587.377 C 567.407 590.581, 586.249 592.472, 589.026 590.986 C 590.980 589.941, 591 588.143, 591 417.620 C 591 251.959, 590.929 245.246, 589.171 243.655 C 587.211 241.881, 584.913 241.797, 572.996 243.064 M 610.531 243.354 C 608.863 244.573, 608.745 245.685, 609.333 254.604 C 610.550 273.066, 615.780 291.595, 625.109 310.500 C 660.075 381.351, 746.667 421.110, 830.726 404.908 C 900.542 391.452, 955.462 343.077, 971.967 280.500 C 974.246 271.859, 976.952 254.764, 976.982 248.821 C 977.019 241.362, 994.202 242, 793.120 242 C 642.733 242, 612.071 242.227, 610.531 243.354 M 778 425.576 C 761.857 427.419, 754.769 428.639, 743.439 431.522 C 673.256 449.380, 622.090 501.632, 610.944 566.829 C 608.546 580.855, 608.429 588.286, 610.571 590.429 C 611.988 591.846, 629.859 592, 792.349 592 C 995.282 592, 977.005 592.773, 976.994 584.193 C 976.991 581.612, 976.334 575.225, 975.534 570 C 968.422 523.553, 942.509 484.434, 900.500 456.726 C 878.251 442.051, 852.694 432.290, 823.986 427.503 C 814.882 425.985, 785.281 424.744, 778 425.576 M 225.223 609.557 C 222.502 611.462, 222.332 616.062, 224.466 630 C 233.621 689.792, 275.885 739.477, 337 762.295 C 360.254 770.977, 379.831 774.348, 407 774.348 C 442.197 774.348, 468.424 768.081, 499 752.365 C 516.514 743.363, 528.426 734.579, 543.557 719.506 C 563.069 700.070, 575.064 680.917, 583.485 655.750 C 587.268 644.444, 591 624.982, 591 616.556 C 591 607.058, 611.226 608, 407.394 608 C 246.145 608, 227.214 608.162, 225.223 609.557 M 610.678 609.803 C 609.121 611.524, 609 624.032, 609 783.257 C 609 941.859, 609.126 954.983, 610.661 956.518 C 612.055 957.913, 613.623 958.075, 620.411 957.529 C 681.200 952.638, 733.265 919.613, 762.347 867.500 C 793.866 811.017, 790.909 739.877, 754.810 686.238 C 724.408 641.063, 675.648 612.978, 619.928 608.551 C 613.355 608.028, 612.135 608.193, 610.678 609.803 M 958.996 609.064 C 890.946 616.300, 832.532 663.122, 811.055 727.647 C 804.897 746.149, 802.972 757.024, 802.320 777 C 801.709 795.707, 803.053 809.365, 807.061 825.180 C 825.491 897.907, 886.665 949.816, 962.346 956.946 C 969.713 957.640, 973.803 957.641, 975.096 956.949 C 976.957 955.953, 977 951.996, 977 783 C 977 613.053, 976.967 610.053, 975.066 609.035 C 972.917 607.885, 970.034 607.890, 958.996 609.064 M 391.400 792.046 C 320.324 797.443, 257.050 841.883, 233.455 902.977 C 227.799 917.623, 223.077 939.433, 223.018 951.179 C 222.981 958.638, 205.734 958, 407.449 958 C 569.079 958, 588.893 957.834, 590.027 956.468 C 590.967 955.335, 591.131 952.405, 590.657 945.218 C 589.449 926.934, 584.187 908.338, 574.891 889.500 C 543.378 825.646, 469.018 786.153, 391.400 792.046" stroke="none" fill="#d3fb04" fill-rule="evenodd"/></svg>