
<svg width="135" height="103" viewBox="0 0 135 103" fill="none" xmlns="http://www.w3.org/2000/svg" class="align-middle">
<path d="M0 73.549a10 10 0 017.16-9.588l114.999-34.074c6.409-1.9 12.841 2.903 12.841 9.588v52.607c0 5.523-4.477 10-10 10H10c-5.523 0-10-4.477-10-10V73.549z" fill="#F5F5F7"></path>
<path d="M108.474 41.996a41.84 41.84 0 01-8.512 25.347C92.294 77.467 80.152 84 66.479 84c-13.673 0-25.815-6.533-33.492-16.647a41.849 41.849 0 01-8.513-25.357C24.474 18.804 43.28 0 66.48 0c23.2 0 41.995 18.804 41.995 41.996z" fill="url(#paint0_linear_125_126)"></path>
<path d="M66.793 39.266c7.177 0 12.996-5.758 12.996-12.861 0-7.103-5.819-12.86-12.996-12.86-7.178 0-12.996 5.757-12.996 12.86s5.818 12.86 12.996 12.86zM66.782 75.399c-9.264 0-17.615-3.349-23.53-9.392-3.472-3.547-5.478-8.974-3.83-13.838 1.62-4.776 5.725-8.518 15.92-8.518h22.88c10.195 0 14.3 3.742 15.919 8.518 1.648 4.864-.358 10.291-3.829 13.838-5.915 6.043-14.266 9.392-23.53 9.392z" fill="#fff"></path>
<path d="M70 73.939c0 11.045 8.954 20 20 20s20-8.955 20-20c0-11.046-8.954-20-20-20s-20 8.954-20 20z" fill="#A9CCFF"></path>
<path d="M104.399 60.057a42.125 42.125 0 01-4.437 7.286c-6.527 8.618-16.295 14.634-27.491 16.233A19.91 19.91 0 0170 73.94c0-11.046 8.954-20 20-20a19.943 19.943 0 0114.399 6.118z" fill="url(#paint1_linear_125_126)"></path>
<path d="M94.653 54.483c.478 4.201-1.43 8.532-4.394 11.524-5.211 5.26-12.289 8.479-20.218 9.225A20.305 20.305 0 0170 73.94c0-11.046 8.954-20 20-20 1.602 0 3.16.188 4.653.544z" fill="url(#paint2_linear_125_126)"></path>
<path d="M91.5 65.439v17h-3v-17h3z" fill="#fff"></path>
<path d="M98.5 75.439h-17v-3h17v3z" fill="#fff"></path>
<defs>
    <linearGradient id="paint0_linear_125_126" x1="121.193" y1="105.562" x2="50.755" y2="-19.031" gradientUnits="userSpaceOnUse">
        <stop stop-color="#F0F0F6"></stop>
        <stop offset="1" stop-color="#9B9DAF"></stop>
    </linearGradient>
    <linearGradient id="paint1_linear_125_126" x1="86.163" y1="113.439" x2="-52.421" y2="-28.433" gradientUnits="userSpaceOnUse">
        <stop stop-color="#024CF8" stop-opacity=".1"></stop>
        <stop offset="1" stop-color="#024CF8"></stop>
    </linearGradient>
    <linearGradient id="paint2_linear_125_126" x1="78.338" y1="76.084" x2="78.406" y2="53.869" gradientUnits="userSpaceOnUse">
        <stop stop-color="#024CF8" stop-opacity=".1"></stop>
        <stop offset="1" stop-color="#024CF8"></stop>
    </linearGradient>
</defs>
</svg>